<svg version="1.0" xmlns="http://www.w3.org/2000/svg" width="700pt" height="700pt" viewBox="0 0 700 700"><g transform="translate(0.000000,700.000000) scale(0.100000,-0.100000)" fill="#000" stroke="none"><path d="M1431 6921c-278-195-454-468-461-717-1-33-1-1264-1-2736l1-2678h2635 2635v2685 2685h-80-80v4e2 4e2H4818c-695 0-1724 3-2288 6l-1025 6-74-51zm4268-437c7-42 26-130 42-196 16-66 29-121 29-124 0-2-1010-4-2244-4H1282l9 43c13 61 73 176 115 220 19 21 63 60 97 88l61 49h2061 2061l13-76zm331-3004V1010H3605 1180v2470 2470h2425 2425V3480z"/><path d="M1250 3480V1110h30 30v2370 2370h-30-30V3480z"/><path d="M2680 5030v-140h-370-370v-1e2-1e2h865 865v1e2 1e2h-365-365v140 140h-130-130v-140z"/><path d="M4060 4890v-280h-2e2-201l3-117 3-118 199-3 199-2-6-148c-8-199-27-344-43-338-6 2-43 27-81 54-39 27-101 69-138 93l-68 43-26-31c-14-17-45-59-68-92l-43-60 33-24c17-13 64-45 102-72 39-27 107-77 153-113 97-75 96-60 23-222-106-239-289-464-511-629-41-30-77-56-78-57-2-2 37-42 87-91l90-89 68 52c182 138 345 311 458 489 43 67 145 273 145 293 0 27 28 6 162-129 77-77 144-137 148-132 5 4 38 50 74 102l67 95-95 95c-53 53-136 130-185 171-56 47-88 81-86 90 27 1e2 55 371 55 538v112h185 185v-352c0-820 52-1161 195-1305 58-57 98-73 185-73 68 0 129 27 159 68 48 68 77 196 88 393l6 108-79 74c-43 41-81 73-83 71-2-2-7-78-12-168-8-181-22-265-47-296-41-49-99 34-126 180-30 168-39 380-40 962l-1 578h-307-308v280 280h-120-120v-280z"/><path d="M2160 4250v-290h650 650v290 290h-650-650v-290zm1058-2-3-123-407-3-408-2v125 125h410 411l-3-122z"/><path d="M2708 3812l-648-2v-95-95l493-2 492-3-125-62c-106-53-133-63-177-63h-53v-94-94l-122-6c-68-4-234-10-370-15-136-4-250-10-254-13-8-9 6-172 16-188 8-13 182-8 623 17l107 6v-120c0-87-4-124-14-139-13-18-28-19-211-19-170 0-195-2-191-15 3-8 20-52 38-98l33-83 2e2 4c223 4 280 16 339 68 45 39 56 91 56 269v139l33 5c17 3 136 10 262 16 127 6 269 13 318 17l87 6v99 1e2l-47-6c-27-3-167-10-313-16-146-6-282-12-302-13-35-2-38 0-38 23 0 22 14 32 118 82 180 88 429 243 439 274 3 9-105 102-132 115-5 2-301 3-657 1z"/><path d="M4628 2509l-116-40 79-102c102-130 283-399 333-497 21-41 40-76 41-78 2-2 266 89 274 94 5 4-65 118-160 259-108 159-299 399-319 402-8 1-68-16-132-38z"/><path d="M2326 2430c-94-188-226-373-342-479-31-29-55-53-53-55 2-2 60-27 128-55l125-51 29 27c53 51 155 179 221 277 64 95 182 322 188 360 3 16-15 24-112 52-63 18-118 34-122 34-4 0-31-49-62-110z"/><path d="M3880 2479c-58-11-110-22-117-24-8-3 0-35 28-102 51-125 133-380 149-461 10-49 16-62 29-58 9 2 69 15 134 27 93 19 117 27 117 40 0 77-191 592-221 596-8 0-61-8-119-18z"/><path d="M3096 2459c-49-5-91-11-93-13-3-2 5-60 16-128 24-144 37-255 47-391l7-99 56 6c31 4 91 12 133 18l78 10-6 77c-7 96-50 398-68 471-12 53-14 55-47 56-19 1-74-2-123-7z"/></g></svg>