<?xml version="1.0" standalone="no"?>
<!DOCTYPE svg PUBLIC "-//W3C//DTD SVG 20010904//EN"
 "http://www.w3.org/TR/2001/REC-SVG-20010904/DTD/svg10.dtd">
<svg version="1.0" xmlns="http://www.w3.org/2000/svg"
 width="700.000000pt" height="700.000000pt" viewBox="0 0 700.000000 700.000000"
 preserveAspectRatio="xMidYMid meet">
<metadata>
Created by potrace 1.14, written by Peter Selinger 2001-2017
</metadata>
<g transform="translate(0.000000,700.000000) scale(0.100000,-0.100000)"
fill="#000000" stroke="none">
<path d="M1431 6921 c-278 -195 -454 -468 -461 -717 -1 -33 -1 -1264 -1 -2736
l1 -2678 2635 0 2635 0 0 2685 0 2685 -80 0 -80 0 0 400 0 400 -1262 0 c-695
0 -1724 3 -2288 6 l-1025 6 -74 -51z m4268 -437 c7 -42 26 -130 42 -196 16
-66 29 -121 29 -124 0 -2 -1010 -4 -2244 -4 l-2244 0 9 43 c13 61 73 176 115
220 19 21 63 60 97 88 l61 49 2061 0 2061 0 13 -76z m331 -3004 l0 -2470
-2425 0 -2425 0 0 2470 0 2470 2425 0 2425 0 0 -2470z"/>
<path d="M1250 3480 l0 -2370 30 0 30 0 0 2370 0 2370 -30 0 -30 0 0 -2370z"/>
<path d="M2680 5030 l0 -140 -370 0 -370 0 0 -100 0 -100 865 0 865 0 0 100 0
100 -365 0 -365 0 0 140 0 140 -130 0 -130 0 0 -140z"/>
<path d="M4060 4890 l0 -280 -200 0 -201 0 3 -117 3 -118 199 -3 199 -2 -6
-148 c-8 -199 -27 -344 -43 -338 -6 2 -43 27 -81 54 -39 27 -101 69 -138 93
l-68 43 -26 -31 c-14 -17 -45 -59 -68 -92 l-43 -60 33 -24 c17 -13 64 -45 102
-72 39 -27 107 -77 153 -113 97 -75 96 -60 23 -222 -106 -239 -289 -464 -511
-629 -41 -30 -77 -56 -78 -57 -2 -2 37 -42 87 -91 l90 -89 68 52 c182 138 345
311 458 489 43 67 145 273 145 293 0 27 28 6 162 -129 77 -77 144 -137 148
-132 5 4 38 50 74 102 l67 95 -95 95 c-53 53 -136 130 -185 171 -56 47 -88 81
-86 90 27 100 55 371 55 538 l0 112 185 0 185 0 0 -352 c0 -820 52 -1161 195
-1305 58 -57 98 -73 185 -73 68 0 129 27 159 68 48 68 77 196 88 393 l6 108
-79 74 c-43 41 -81 73 -83 71 -2 -2 -7 -78 -12 -168 -8 -181 -22 -265 -47
-296 -41 -49 -99 34 -126 180 -30 168 -39 380 -40 962 l-1 578 -307 0 -308 0
0 280 0 280 -120 0 -120 0 0 -280z"/>
<path d="M2160 4250 l0 -290 650 0 650 0 0 290 0 290 -650 0 -650 0 0 -290z
m1058 -2 l-3 -123 -407 -3 -408 -2 0 125 0 125 410 0 411 0 -3 -122z"/>
<path d="M2708 3812 l-648 -2 0 -95 0 -95 493 -2 492 -3 -125 -62 c-106 -53
-133 -63 -177 -63 l-53 0 0 -94 0 -94 -122 -6 c-68 -4 -234 -10 -370 -15 -136
-4 -250 -10 -254 -13 -8 -9 6 -172 16 -188 8 -13 182 -8 623 17 l107 6 0 -120
c0 -87 -4 -124 -14 -139 -13 -18 -28 -19 -211 -19 -170 0 -195 -2 -191 -15 3
-8 20 -52 38 -98 l33 -83 200 4 c223 4 280 16 339 68 45 39 56 91 56 269 l0
139 33 5 c17 3 136 10 262 16 127 6 269 13 318 17 l87 6 0 99 0 100 -47 -6
c-27 -3 -167 -10 -313 -16 -146 -6 -282 -12 -302 -13 -35 -2 -38 0 -38 23 0
22 14 32 118 82 180 88 429 243 439 274 3 9 -105 102 -132 115 -5 2 -301 3
-657 1z"/>
<path d="M4628 2509 l-116 -40 79 -102 c102 -130 283 -399 333 -497 21 -41 40
-76 41 -78 2 -2 266 89 274 94 5 4 -65 118 -160 259 -108 159 -299 399 -319
402 -8 1 -68 -16 -132 -38z"/>
<path d="M2326 2430 c-94 -188 -226 -373 -342 -479 -31 -29 -55 -53 -53 -55 2
-2 60 -27 128 -55 l125 -51 29 27 c53 51 155 179 221 277 64 95 182 322 188
360 3 16 -15 24 -112 52 -63 18 -118 34 -122 34 -4 0 -31 -49 -62 -110z"/>
<path d="M3880 2479 c-58 -11 -110 -22 -117 -24 -8 -3 0 -35 28 -102 51 -125
133 -380 149 -461 10 -49 16 -62 29 -58 9 2 69 15 134 27 93 19 117 27 117 40
0 77 -191 592 -221 596 -8 0 -61 -8 -119 -18z"/>
<path d="M3096 2459 c-49 -5 -91 -11 -93 -13 -3 -2 5 -60 16 -128 24 -144 37
-255 47 -391 l7 -99 56 6 c31 4 91 12 133 18 l78 10 -6 77 c-7 96 -50 398 -68
471 -12 53 -14 55 -47 56 -19 1 -74 -2 -123 -7z"/>
</g>
</svg>
